<?xml version="1.0" encoding="UTF-8" standalone="no"?>
<svg
   id="logo"
   viewBox="0 0 303.25 303.25"
   version="1.1"
   sodipodi:docname="ooneex_alternative_white_symbol_logo.svg.svg"
   width="303.25"
   height="303.25"
   inkscape:version="1.4.2 (2aeb623e1d, 2025-05-12)"
   xmlns:inkscape="http://www.inkscape.org/namespaces/inkscape"
   xmlns:sodipodi="http://sodipodi.sourceforge.net/DTD/sodipodi-0.dtd"
   xmlns="http://www.w3.org/2000/svg"
   xmlns:svg="http://www.w3.org/2000/svg"
   xmlns:rdf="http://www.w3.org/1999/02/22-rdf-syntax-ns#"
   xmlns:cc="http://creativecommons.org/ns#"
   xmlns:dc="http://purl.org/dc/elements/1.1/">
  <defs
     id="defs5" />
  <sodipodi:namedview
     id="namedview5"
     pagecolor="#505050"
     bordercolor="#eeeeee"
     borderopacity="1"
     inkscape:showpageshadow="0"
     inkscape:pageopacity="0"
     inkscape:pagecheckerboard="0"
     inkscape:deskcolor="#505050"
     showgrid="false"
     inkscape:zoom="0.257"
     inkscape:cx="1000"
     inkscape:cy="149.80545"
     inkscape:window-width="2048"
     inkscape:window-height="1211"
     inkscape:window-x="0"
     inkscape:window-y="0"
     inkscape:window-maximized="1"
     inkscape:current-layer="logo" />
  <title
     id="title1">ooneex_alternative_white_logo</title>
  <g
     id="symbol">
    <path
       id="Path"
       d="m 733.16,425.61 a 2.17,2.17 0 0 1 -3,0.09 123.05,123.05 0 0 0 -36.11,-22.22 106.06,106.06 0 0 0 -40.91,-7.23 102.45,102.45 0 0 0 -50.71,14.11 q -11.91,6.94 -33.72,28.39 -29.52,29 -59.14,58.92 -2.42,2.43 -2.13,-1 6.11,-71.52 61.31,-113 40.9,-30.72 96.38,-27.39 55.09,3.35 93.87,41.72 a 1.09,1.09 0 0 1 0.33,0.78 1.11,1.11 0 0 1 -0.33,0.79 z"
       transform="translate(-507.45,-351.28)"
       style="fill:#faae7b" />
    <path
       id="Path-2"
       data-name="Path"
       d="m 537.28,571 q -4,4.1 -8.29,7.82 a 1,1 0 0 1 -0.76,0.2 0.91,0.91 0 0 1 -0.64,-0.45 191.65,191.65 0 0 1 -15.37,-37.48 3.17,3.17 0 0 1 0.79,-3.14 q 38.57,-38.6 75.85,-75.85 19.9,-19.89 29.07,-25.2 a 73.58,73.58 0 0 1 38.39,-9.9 q 29.34,0.36 52.28,20.84 a 1.1,1.1 0 0 1 0.38,0.77 1,1 0 0 1 -0.29,0.78 l -26.39,27.08 a 2,2 0 0 1 -2.59,0.14 q -14.75,-11.42 -31.11,-8 -8.62,1.78 -17.92,9.91 -8.29,7.22 -18.74,18 -14.06,14.52 -66.2,65.72 c -0.08,0.11 -2.89,3.02 -8.46,8.76 z"
       transform="translate(-507.45,-351.28)"
       style="fill:#ffffff" />
    <path
       id="Path-3"
       data-name="Path"
       d="m 759.4,509.09 q -39.89,40.1 -49.29,49.14 a 77.57,77.57 0 0 1 -33.94,19.42 76.21,76.21 0 0 1 -37.84,0.85 77.47,77.47 0 0 1 -36,-19.65 1.07,1.07 0 0 1 -0.35,-0.77 1.14,1.14 0 0 1 0.32,-0.78 l 26.36,-26.6 a 2.29,2.29 0 0 1 3,-0.2 q 18.71,14.13 36.82,6.89 8.16,-3.25 23.1,-18.08 45.49,-45.21 90.71,-90.23 a 0.87,0.87 0 0 1 0.75,-0.25 0.91,0.91 0 0 1 0.67,0.45 155.28,155.28 0 0 1 15.63,37.72 2.8,2.8 0 0 1 -0.73,2.7 Q 778,490.37 759.4,509.09 Z"
       transform="translate(-507.45,-351.28)"
       style="fill:#ffffff" />
    <path
       id="Path-4"
       data-name="Path"
       d="m 795.62,553.67 a 208.83,208.83 0 0 1 -13.14,28 l -7.23,10.13 -5,6.64 a 188.88,188.88 0 0 1 -26.4,24.51 l -6.7,5.05 a 210.72,210.72 0 0 1 -31.69,15.86 l -9.31,2.68 Q 616.83,665.8 553.33,611.2 a 3.54,3.54 0 0 1 -0.16,-5.22 l 25.47,-25 a 1.15,1.15 0 0 1 1.61,0 Q 610,608.53 648,611.2 q 38.73,2.71 68.9,-18.88 7.55,-5.37 32.48,-30 26.6,-26.24 52.79,-52.48 1.86,-1.87 1.69,0.75 a 181.6,181.6 0 0 1 -8.24,43.08 z"
       transform="translate(-507.45,-351.28)"
       style="fill:#faae7b" />
    <circle
       id="Oval"
       cx="148.32001"
       cy="153.71001"
       r="22.129999"
       style="fill:#faae7b" />
  </g>
  <metadata
     id="metadata5">
    <rdf:RDF>
      <cc:Work
         rdf:about="">
        <dc:title>ooneex_alternative_white_logo</dc:title>
      </cc:Work>
    </rdf:RDF>
  </metadata>
</svg>
