<svg id="logo" xmlns="http://www.w3.org/2000/svg" viewBox="0 0 2000 303.25"><title>ooneex_alternative_white_logo</title><g id="oneex"><path d="M857.83,502.91a146.85,146.85,0,0,1,11.94-58.83,152.58,152.58,0,0,1,80.87-80.86,150.88,150.88,0,0,1,117.65,0,152.61,152.61,0,0,1,80.86,80.86,150.88,150.88,0,0,1,0,117.65,152.58,152.58,0,0,1-80.86,80.87,151,151,0,0,1-117.65,0,152.56,152.56,0,0,1-80.87-80.87A146.76,146.76,0,0,1,857.83,502.91Zm54.2,0a93.7,93.7,0,0,0,7.72,37.91,98.77,98.77,0,0,0,51.8,51.8,96.94,96.94,0,0,0,75.82,0,98.77,98.77,0,0,0,51.8-51.8,96.94,96.94,0,0,0,0-75.82,98.77,98.77,0,0,0-51.8-51.8,96.94,96.94,0,0,0-75.82,0,98.77,98.77,0,0,0-51.8,51.8A93.7,93.7,0,0,0,912,502.91Z" transform="translate(-507.45 -351.28)" style="fill:#fff"/><path d="M1240.91,355.5c4.62,0,23.68-1.81,33.23,12.06,1.73,2.51,4.31,8.15,4.31,11.52v12.08a55,55,0,0,1,14-17.27,88.36,88.36,0,0,1,20.22-12.5,110,110,0,0,1,24.28-7.58,139.77,139.77,0,0,1,26.54-2.53q24.71,0,45.21,8.85a95.09,95.09,0,0,1,35,25.69q14.46,16.85,22.47,41.28t8,55.59V650.32h-12.58a43,43,0,0,1-43-43V482.69q0-36.78-13.47-57.7t-41.56-20.92a130.18,130.18,0,0,0-31.87,3.79A111,111,0,0,0,1305,418.11a60.6,60.6,0,0,0-18.67,15.44,35.49,35.49,0,0,0-7.86,19.1V650.32h-55.6V355.5Z" transform="translate(-507.45 -351.28)" style="fill:#fff"/><path d="M1828.23,477.92a39.29,39.29,0,0,1-3.8,17.55,47.23,47.23,0,0,1-9.4,13.19,40.85,40.85,0,0,1-12.5,8.43,33.3,33.3,0,0,1-13,2.95h-205a86,86,0,0,0,11.23,31.73,99,99,0,0,0,21.62,25.41,100.56,100.56,0,0,0,29.21,17,96.77,96.77,0,0,0,58.82,3A101.12,101.12,0,0,0,1728,588a48.26,48.26,0,0,1,11-4.49,46.17,46.17,0,0,1,11.8-1.41,38.33,38.33,0,0,1,16.28,3.37,47.94,47.94,0,0,1,13.76,9.83L1791.44,606A157.11,157.11,0,0,1,1742,641.48q-28.37,13-61.49,13a146.76,146.76,0,0,1-58.82-11.93,152.56,152.56,0,0,1-80.87-80.87,151,151,0,0,1,0-117.65,152.58,152.58,0,0,1,80.87-80.86,146.76,146.76,0,0,1,58.82-11.94,144.79,144.79,0,0,1,50,8.71,156.89,156.89,0,0,1,43.24,23.86A154.06,154.06,0,0,1,1807,419.8,144.5,144.5,0,0,1,1827.1,465a24.5,24.5,0,0,1,.84,6.46Q1827.94,474.84,1828.23,477.92Zm-222.67-12.08h165.1a101.47,101.47,0,0,0-14.6-24.28A96.71,96.71,0,0,0,1709.73,410a98,98,0,0,0-60.79.7,97.49,97.49,0,0,0-27.23,14.46,96.11,96.11,0,0,0-21.06,22,97.12,97.12,0,0,0-13.34,27.94,27.66,27.66,0,0,1,6.74-6.18C1597,466.88,1600.88,465.84,1605.56,465.84Z" transform="translate(-507.45 -351.28)" style="fill:#fff"/><path d="M2168.26,477.92a39.29,39.29,0,0,1-3.79,17.55,47.47,47.47,0,0,1-9.41,13.19,40.8,40.8,0,0,1-12.49,8.43,33.3,33.3,0,0,1-13.06,2.95h-205a85.62,85.62,0,0,0,11.23,31.73,98.84,98.84,0,0,0,21.62,25.41,100.51,100.51,0,0,0,29.2,17,96.77,96.77,0,0,0,58.82,3A101.2,101.2,0,0,0,2068,588,47.89,47.89,0,0,1,2079,583.5a46,46,0,0,1,11.79-1.41,38.38,38.38,0,0,1,16.29,3.37,48.08,48.08,0,0,1,13.76,9.83L2131.48,606a157.22,157.22,0,0,1-49.42,35.52q-28.36,13-61.5,13a146.79,146.79,0,0,1-58.82-11.93,152.56,152.56,0,0,1-80.87-80.87,151,151,0,0,1,0-117.65,152.58,152.58,0,0,1,80.87-80.86,146.8,146.8,0,0,1,58.82-11.94,144.79,144.79,0,0,1,50,8.71,157.09,157.09,0,0,1,43.25,23.86,154.23,154.23,0,0,1,33.27,35.95,144.3,144.3,0,0,1,20.08,45.2,24.5,24.5,0,0,1,.84,6.46Q2168,474.84,2168.26,477.92Zm-222.67-12.08H2110.7a102.13,102.13,0,0,0-14.6-24.28A96.71,96.71,0,0,0,2049.77,410a98,98,0,0,0-60.79.7,96.89,96.89,0,0,0-61.64,64.44,27.85,27.85,0,0,1,6.74-6.18C1937.07,466.88,1940.91,465.84,1945.59,465.84Z" transform="translate(-507.45 -351.28)" style="fill:#fff"/><path d="M2498.18,355.5l-98.27,133.37a17.45,17.45,0,0,0-2,7.86,14.31,14.31,0,0,0,2.81,9l106.7,144.6h-38.19q-16.29,0-28.78-6.32a52.55,52.55,0,0,1-20.64-19l-65.14-87.88a17.54,17.54,0,0,1-3.23-7.31q-1-4.49-1.26-6.45c-.38,1.12-.89,3.23-1.55,6.31a20.37,20.37,0,0,1-2.94,7.45l-65.15,87.88a52.59,52.59,0,0,1-20.63,19q-12.51,6.33-28.78,6.32H2193l106.7-144.6a14.31,14.31,0,0,0,2.81-9,17.45,17.45,0,0,0-2-7.86L2202.23,355.5h38.19q16.29,0,28.78,6.31a52.58,52.58,0,0,1,20.64,19l55.88,75.53a21.35,21.35,0,0,1,3.09,8.14,38.78,38.78,0,0,0,1.4,6.18c.18-.94.56-3,1.12-6.18a18.79,18.79,0,0,1,3.37-8.14l55.88-75.53a52.51,52.51,0,0,1,20.64-19q12.48-6.31,28.78-6.31Z" transform="translate(-507.45 -351.28)" style="fill:#fff"/></g><g id="symbol"><path id="Path" d="M733.16,425.61a2.17,2.17,0,0,1-3,.09,123.05,123.05,0,0,0-36.11-22.22,106.06,106.06,0,0,0-40.91-7.23,102.45,102.45,0,0,0-50.71,14.11q-11.91,6.94-33.72,28.39-29.52,29-59.14,58.92-2.42,2.43-2.13-1,6.11-71.52,61.31-113,40.9-30.72,96.38-27.39Q720.22,359.63,759,398a1.09,1.09,0,0,1,.33.78,1.11,1.11,0,0,1-.33.79Z" transform="translate(-507.45 -351.28)" style="fill:#faae7b"/><path id="Path-2" data-name="Path" d="M537.28,571q-4,4.1-8.29,7.82a1,1,0,0,1-.76.2.91.91,0,0,1-.64-.45,191.65,191.65,0,0,1-15.37-37.48,3.17,3.17,0,0,1,.79-3.14q38.57-38.6,75.85-75.85,19.9-19.89,29.07-25.2A73.58,73.58,0,0,1,656.32,427q29.34.36,52.28,20.84a1.1,1.1,0,0,1,.38.77,1,1,0,0,1-.29.78L682.3,476.47a2,2,0,0,1-2.59.14q-14.75-11.42-31.11-8-8.62,1.78-17.92,9.91-8.29,7.22-18.74,18-14.06,14.52-66.2,65.72C545.66,562.35,542.85,565.26,537.28,571Z" transform="translate(-507.45 -351.28)" style="fill:#fff"/><path id="Path-3" data-name="Path" d="M759.4,509.09q-39.89,40.1-49.29,49.14a77.57,77.57,0,0,1-33.94,19.42,76.21,76.21,0,0,1-37.84.85,77.47,77.47,0,0,1-36-19.65,1.07,1.07,0,0,1-.35-.77,1.14,1.14,0,0,1,.32-.78l26.36-26.6a2.29,2.29,0,0,1,3-.2q18.71,14.13,36.82,6.89,8.16-3.25,23.1-18.08,45.49-45.21,90.71-90.23a.87.87,0,0,1,.75-.25.91.91,0,0,1,.67.45A155.28,155.28,0,0,1,799.34,467a2.8,2.8,0,0,1-.73,2.7Q778,490.37,759.4,509.09Z" transform="translate(-507.45 -351.28)" style="fill:#fff"/><path id="Path-4" data-name="Path" d="M795.62,553.67a208.83,208.83,0,0,1-13.14,28l-7.23,10.13-5,6.64a188.88,188.88,0,0,1-26.4,24.51L737.15,628a210.72,210.72,0,0,1-31.69,15.86l-9.31,2.68Q616.83,665.8,553.33,611.2a3.54,3.54,0,0,1-.16-5.22l25.47-25a1.15,1.15,0,0,1,1.61,0Q610,608.53,648,611.2q38.73,2.71,68.9-18.88,7.55-5.37,32.48-30,26.6-26.24,52.79-52.48,1.86-1.87,1.69.75A181.6,181.6,0,0,1,795.62,553.67Z" transform="translate(-507.45 -351.28)" style="fill:#faae7b"/><circle id="Oval" cx="148.32" cy="153.71" r="22.13" style="fill:#faae7b"/></g></svg>