<svg xmlns="http://www.w3.org/2000/svg" viewBox="0 0 2015.84 411.47"><title>ooneex_default_logo</title><g><g id="logo"><g id="letters"><path d="M746.63,151.18A149.62,149.62,0,0,0,667.39,72a148.1,148.1,0,0,0-115.53,0,149.62,149.62,0,0,0-79.24,79.23,148.12,148.12,0,0,0,0,115.54A149.62,149.62,0,0,0,551.86,346a148.1,148.1,0,0,0,115.53,0,149.62,149.62,0,0,0,79.24-79.23,148.12,148.12,0,0,0,0-115.54ZM692.06,209a79.47,79.47,0,0,1-6.5,32,83.69,83.69,0,0,1-43.95,44,82,82,0,0,1-64,0,83.62,83.62,0,0,1-43.95-43.95,81.92,81.92,0,0,1,0-64,83.69,83.69,0,0,1,43.95-44,82.06,82.06,0,0,1,64,0,83.6,83.6,0,0,1,43.95,44A79.47,79.47,0,0,1,692.06,209Z" style="fill:#482974"/><path d="M1041.12,136.09c-5.26-16-12.79-29.85-22.39-41a96.58,96.58,0,0,0-35.34-26,113.31,113.31,0,0,0-45.13-8.86,138.19,138.19,0,0,0-26.15,2.49A110.36,110.36,0,0,0,887.8,70.3,90.78,90.78,0,0,0,867.22,83c-.72.6-1.43,1.21-2.12,1.84a35,35,0,0,0-3.22-6.09C851.3,63.43,832,63.94,825.6,64.1l-1.15,0H799.69V353.77h67.6V162.66a25.06,25.06,0,0,1,5.6-13.16,48.38,48.38,0,0,1,14.91-12.26,95,95,0,0,1,22.84-8.75,112.7,112.7,0,0,1,27.62-3.28c14.6,0,25,5.15,31.84,15.75,7.46,11.57,11.24,28.13,11.24,49.23V305.85a48,48,0,0,0,47.93,47.92h19.67V190.19C1048.94,170.15,1046.31,152,1041.12,136.09Z" style="fill:#482974"/><path d="M1377.54,185c-.15-1.65-.23-3.43-.23-5.27a31,31,0,0,0-1-8,142.72,142.72,0,0,0-19.73-44.38,151.66,151.66,0,0,0-32.6-35.21,154.34,154.34,0,0,0-42.32-23.37,143.06,143.06,0,0,0-49.13-8.56A144.79,144.79,0,0,0,1174.72,72a149.62,149.62,0,0,0-79.24,79.23,148.12,148.12,0,0,0,0,115.54A149.62,149.62,0,0,0,1174.72,346a145,145,0,0,0,57.77,11.73,143.39,143.39,0,0,0,60.42-12.85,154.56,154.56,0,0,0,48.36-34.76l5.29-5.65L1331.18,289a52.61,52.61,0,0,0-15.07-10.72,43.67,43.67,0,0,0-18.47-3.87,51.27,51.27,0,0,0-13,1.57,53.56,53.56,0,0,0-12,4.9,85.8,85.8,0,0,1-19.2,7.75,81.88,81.88,0,0,1-49.67-2.49A86,86,0,0,1,1179,271.75a84.19,84.19,0,0,1-18.33-21.55,71.27,71.27,0,0,1-7.44-17.35h180.4a38.83,38.83,0,0,0,15.27-3.39,46.35,46.35,0,0,0,14-9.44,52.29,52.29,0,0,0,10.32-14.45,44.54,44.54,0,0,0,4.34-19.82Zm-74.47-18.48H1161.84q1.46-2.44,3.08-4.79a81.82,81.82,0,0,1,67.57-35.25,81.05,81.05,0,0,1,24.66,3.78A81.85,81.85,0,0,1,1296.37,157,86.14,86.14,0,0,1,1303.07,166.55Z" style="fill:#482974"/><path d="M1693.14,185c-.15-1.65-.22-3.42-.22-5.27a30.9,30.9,0,0,0-1.05-8,142.69,142.69,0,0,0-19.72-44.38,151.66,151.66,0,0,0-32.6-35.21,154.52,154.52,0,0,0-42.33-23.37,143.06,143.06,0,0,0-49.13-8.56A144.83,144.83,0,0,0,1490.32,72a149.65,149.65,0,0,0-79.23,79.23,148.12,148.12,0,0,0,0,115.54A149.65,149.65,0,0,0,1490.32,346a145,145,0,0,0,57.77,11.73,143.32,143.32,0,0,0,60.42-12.85,154.33,154.33,0,0,0,48.36-34.76l5.3-5.65L1646.79,289a52.79,52.79,0,0,0-15.08-10.72,43.63,43.63,0,0,0-18.46-3.87,51.21,51.21,0,0,0-13,1.57,53.18,53.18,0,0,0-12,4.9,86.19,86.19,0,0,1-19.2,7.75,81.91,81.91,0,0,1-49.68-2.49,86,86,0,0,1-24.8-14.42,84,84,0,0,1-18.33-21.55,71.27,71.27,0,0,1-7.44-17.35h180.39a38.8,38.8,0,0,0,15.27-3.39,45.93,45.93,0,0,0,14-9.44,52.11,52.11,0,0,0,10.33-14.45,44.54,44.54,0,0,0,4.34-19.82Zm-74.47-18.48H1477.45q1.46-2.44,3.07-4.79a81.84,81.84,0,0,1,67.57-35.25,81.07,81.07,0,0,1,24.67,3.78A82,82,0,0,1,1612,157,86.05,86.05,0,0,1,1618.67,166.55Z" style="fill:#482974"/><path d="M1907.4,206.81l-.1-.14a5.24,5.24,0,0,1-.94-3.45,8,8,0,0,1,.72-3.18L2007.23,64.13H1956c-11.3,0-21.51,2.26-30.33,6.72A56.87,56.87,0,0,0,1903.51,91l-49.46,66.85L1804.6,91a56.94,56.94,0,0,0-22.12-20.17c-8.83-4.46-19-6.72-30.33-6.72h-51.27L1801,200a7.86,7.86,0,0,1,.73,3.18,5.23,5.23,0,0,1-1,3.46L1692.27,353.77h51.28c11.3,0,21.5-2.26,30.33-6.72A56.94,56.94,0,0,0,1796,326.88l58-78.33,58.06,78.33a56.87,56.87,0,0,0,22.12,20.17c8.82,4.46,19,6.72,30.33,6.72h51.28Z" style="fill:#482974"/></g><g id="symbol"><rect id="rect" width="411.47" height="411.47" rx="47.02" ry="47.02" style="fill:#482974"/><g id="Logos_Primary_Rounded" data-name="Logos/Primary/Rounded"><path id="Path" d="M280,135.14a2,2,0,0,1-2.75.08,114.26,114.26,0,0,0-33.51-20.62,98.4,98.4,0,0,0-38-6.71A95.12,95.12,0,0,0,158.73,121q-11.05,6.45-31.3,26.35Q100,174.27,72.54,202c-1.5,1.5-2.15,1.2-2-.91q5.66-66.37,56.9-104.86,38-28.51,89.46-25.42Q268,73.9,304,109.53a1,1,0,0,1,0,1.46Z" style="fill:#faae7b"/><path id="Path-2" data-name="Path" d="M98.23,270.08q-3.67,3.81-7.7,7.25a.84.84,0,0,1-.71.19.82.82,0,0,1-.59-.41A178.24,178.24,0,0,1,75,242.32a3,3,0,0,1,.74-2.92q35.79-35.82,70.4-70.4,18.48-18.45,27-23.39a68.23,68.23,0,0,1,35.63-9.18q27.24.33,48.53,19.35a1,1,0,0,1,.35.71,1,1,0,0,1-.27.73l-24.5,25.13a1.8,1.8,0,0,1-2.4.13q-13.68-10.6-28.88-7.42-8,1.66-16.63,9.2Q177.22,191,167.52,201q-13.05,13.47-61.45,61Z" style="fill:#fef6f0"/><path id="Path-3" data-name="Path" d="M304.39,212.62q-37,37.22-45.75,45.61a72,72,0,0,1-31.51,18A70.6,70.6,0,0,1,192,277a71.78,71.78,0,0,1-33.4-18.23,1,1,0,0,1-.31-.71,1,1,0,0,1,.29-.73l24.46-24.68a2.13,2.13,0,0,1,2.77-.19q17.35,13.11,34.18,6.39,7.58-3,21.44-16.78,42.21-42,84.19-83.75a.82.82,0,0,1,.7-.23.83.83,0,0,1,.62.42,144.43,144.43,0,0,1,14.5,35,2.6,2.6,0,0,1-.68,2.51Z" style="fill:#fef6f0"/><path id="Path-4" data-name="Path" d="M338,254a195.22,195.22,0,0,1-12.2,25.94l-6.72,9.41-4.62,6.16A175.3,175.3,0,0,1,290,318.26l-6.24,4.7a194.68,194.68,0,0,1-29.41,14.73l-8.64,2.48q-73.62,17.91-132.56-32.77a3.29,3.29,0,0,1-.15-4.85l23.64-23.19a1.09,1.09,0,0,1,1.5,0q27.58,25.56,62.9,28Q237,309.92,265,289.88q7-5,30.15-27.83,24.67-24.35,49-48.71,1.72-1.74,1.56.7A169,169,0,0,1,338,254Z" style="fill:#faae7b"/><circle id="Oval" cx="208.2" cy="208.82" r="20.54" style="fill:#faae7b"/></g></g></g></g></svg>