<svg id="logo" xmlns="http://www.w3.org/2000/svg" viewBox="0 0 2000 411.47"><title>ooneex_default_logo</title><g id="letters"><path d="M968.89,502.22A136.22,136.22,0,0,1,980,447.62,141.59,141.59,0,0,1,1055,372.56a140,140,0,0,1,109.19,0,141.59,141.59,0,0,1,75.06,75.06,140.07,140.07,0,0,1,0,109.2,141.62,141.62,0,0,1-75.06,75,140,140,0,0,1-109.19,0,141.62,141.62,0,0,1-75.06-75A136.29,136.29,0,0,1,968.89,502.22Zm50.3,0a86.94,86.94,0,0,0,7.17,35.18,91.54,91.54,0,0,0,48.08,48.08,89.92,89.92,0,0,0,70.37,0,91.54,91.54,0,0,0,48.08-48.08,89.92,89.92,0,0,0,0-70.37A91.63,91.63,0,0,0,1144.81,419a89.92,89.92,0,0,0-70.37,0A91.63,91.63,0,0,0,1026.36,467,87,87,0,0,0,1019.19,502.22Z" transform="translate(-500 -293.27)" style="fill:#482974"/><path d="M1324.45,365.39c4.29,0,22-1.67,30.84,11.2,1.61,2.33,4,7.57,4,10.7v11.2a51.09,51.09,0,0,1,13-16,81.89,81.89,0,0,1,18.77-11.59,101.41,101.41,0,0,1,22.54-7,129.63,129.63,0,0,1,24.63-2.35,104.92,104.92,0,0,1,42,8.21,88.36,88.36,0,0,1,32.44,23.85q13.42,15.63,20.85,38.31t7.43,51.6V639h-11.67a39.93,39.93,0,0,1-39.93-39.93V483.45q0-34.14-12.51-53.55t-38.57-19.42a120.25,120.25,0,0,0-29.58,3.52,102.7,102.7,0,0,0-24.76,9.51,56.23,56.23,0,0,0-17.33,14.33,32.89,32.89,0,0,0-7.3,17.73V639h-51.6V365.39Z" transform="translate(-500 -293.27)" style="fill:#482974"/><path d="M1869.57,479a36.41,36.41,0,0,1-3.52,16.29,44,44,0,0,1-8.73,12.25,38,38,0,0,1-11.6,7.82,30.88,30.88,0,0,1-12.11,2.73H1643.36a79.45,79.45,0,0,0,10.42,29.45,91.55,91.55,0,0,0,20.07,23.59,93.44,93.44,0,0,0,27.1,15.77,89.86,89.86,0,0,0,54.6,2.73,93.71,93.71,0,0,0,21-8.47,44.9,44.9,0,0,1,10.16-4.17,43.38,43.38,0,0,1,11-1.3,35.6,35.6,0,0,1,15.12,3.13,44.46,44.46,0,0,1,12.77,9.12l9.9,9.9a145.67,145.67,0,0,1-45.87,33A134.79,134.79,0,0,1,1732.49,643a136.22,136.22,0,0,1-54.6-11.08,141.62,141.62,0,0,1-75.06-75,140.07,140.07,0,0,1,0-109.2,141.59,141.59,0,0,1,75.06-75.06,136.39,136.39,0,0,1,54.6-11.08,134.52,134.52,0,0,1,46.39,8.08A145.61,145.61,0,0,1,1819,391.72a143,143,0,0,1,30.88,33.35,134.26,134.26,0,0,1,18.64,42,22.8,22.8,0,0,1,.78,6Q1869.31,476.15,1869.57,479Zm-206.67-11.2h153.24a94.2,94.2,0,0,0-13.55-22.55,89.82,89.82,0,0,0-43-29.32,90.89,90.89,0,0,0-56.42.65A90.22,90.22,0,0,0,1677.89,430a89.19,89.19,0,0,0-19.55,20.45A90.42,90.42,0,0,0,1646,476.42a25.76,25.76,0,0,1,6.26-5.74C1655,468.77,1658.56,467.82,1662.9,467.82Z" transform="translate(-500 -293.27)" style="fill:#482974"/><path d="M2185.18,479a36.55,36.55,0,0,1-3.52,16.29,44.18,44.18,0,0,1-8.73,12.25,38,38,0,0,1-11.6,7.82,30.89,30.89,0,0,1-12.12,2.73H1959a79.65,79.65,0,0,0,10.43,29.45,91.7,91.7,0,0,0,20.06,23.59,93.49,93.49,0,0,0,27.11,15.77,89.86,89.86,0,0,0,54.6,2.73,93.71,93.71,0,0,0,21-8.47A44.9,44.9,0,0,1,2102.3,577a43.38,43.38,0,0,1,10.95-1.3,35.58,35.58,0,0,1,15.11,3.13,44.32,44.32,0,0,1,12.77,9.12l9.91,9.9a145.89,145.89,0,0,1-45.87,33A134.84,134.84,0,0,1,2048.09,643a136.25,136.25,0,0,1-54.6-11.08,141.65,141.65,0,0,1-75-75,140.07,140.07,0,0,1,0-109.2,141.62,141.62,0,0,1,75-75.06,136.42,136.42,0,0,1,54.6-11.08,134.48,134.48,0,0,1,46.39,8.08,145.52,145.52,0,0,1,40.14,22.16,143.25,143.25,0,0,1,30.88,33.35,134,134,0,0,1,18.63,42,22.8,22.8,0,0,1,.79,6C2184.92,475.11,2185,477.11,2185.18,479Zm-206.67-11.2h153.24a94.53,94.53,0,0,0-13.55-22.55,89.94,89.94,0,0,0-43-29.32,90.92,90.92,0,0,0-56.43.65A90.5,90.5,0,0,0,1993.49,430a90.22,90.22,0,0,0-31.92,46.39,25.7,25.7,0,0,1,6.25-5.74A18.47,18.47,0,0,1,1978.51,467.82Z" transform="translate(-500 -293.27)" style="fill:#482974"/><path d="M2491.4,365.39l-91.22,123.8a16.24,16.24,0,0,0-1.82,7.29,13.22,13.22,0,0,0,2.61,8.34L2500,639h-35.44q-15.12,0-26.72-5.86a48.78,48.78,0,0,1-19.15-17.6L2358.23,534a16,16,0,0,1-3-6.77q-.92-4.17-1.18-6c-.35,1-.82,3-1.43,5.87a18.73,18.73,0,0,1-2.74,6.9l-60.46,81.57a48.85,48.85,0,0,1-19.15,17.6q-11.61,5.87-26.72,5.86h-35.44l99-134.22a13.22,13.22,0,0,0,2.61-8.34,16.24,16.24,0,0,0-1.82-7.29l-91.22-123.8h35.44q15.12,0,26.72,5.87A48.82,48.82,0,0,1,2298,388.85l51.86,70.1a19.66,19.66,0,0,1,2.87,7.56,36.36,36.36,0,0,0,1.3,5.74q.27-1.31,1-5.74a17.4,17.4,0,0,1,3.13-7.56l51.86-70.1a48.76,48.76,0,0,1,19.15-17.59q11.6-5.86,26.72-5.87Z" transform="translate(-500 -293.27)" style="fill:#482974"/></g><g id="symbol"><rect id="rect" width="411.47" height="411.47" rx="47.02" ry="47.02" style="fill:#482974"/><g id="Logos_Primary_Rounded" data-name="Logos/Primary/Rounded"><path id="Path" d="M780,428.41a2,2,0,0,1-2.75.08,114.26,114.26,0,0,0-33.51-20.62,98.21,98.21,0,0,0-38-6.71,95,95,0,0,0-47.07,13.1q-11.06,6.45-31.3,26.35Q600,467.52,572.54,495.29c-1.5,1.51-2.15,1.21-2-.9q5.65-66.37,56.9-104.86,38-28.51,89.46-25.42Q768,367.17,804,402.8a1,1,0,0,1,.3.73,1.06,1.06,0,0,1-.3.73Z" transform="translate(-500 -293.27)" style="fill:#f39655"/><path id="Path-2" data-name="Path" d="M598.23,563.35q-3.68,3.79-7.7,7.25a.91.91,0,0,1-.71.19.83.83,0,0,1-.59-.42A177.73,177.73,0,0,1,575,535.58a3,3,0,0,1,.74-2.91q35.79-35.82,70.4-70.4,18.48-18.47,27-23.39a68.23,68.23,0,0,1,35.63-9.18q27.24.33,48.53,19.35a1,1,0,0,1,.35.7,1,1,0,0,1-.27.73l-24.5,25.14a1.8,1.8,0,0,1-2.4.12q-13.68-10.59-28.88-7.41-8,1.67-16.63,9.2-7.7,6.69-17.39,16.74-13,13.47-61.45,61Z" transform="translate(-500 -293.27)" style="fill:#fef6f0"/><path id="Path-3" data-name="Path" d="M804.39,505.89q-37,37.22-45.75,45.61a72,72,0,0,1-31.51,18,70.6,70.6,0,0,1-35.11.78,71.78,71.78,0,0,1-33.4-18.23,1,1,0,0,1-.31-.71,1,1,0,0,1,.29-.73L683.06,526a2.12,2.12,0,0,1,2.77-.18q17.35,13.1,34.18,6.39,7.57-3,21.44-16.78,42.21-42,84.19-83.75a.82.82,0,0,1,.7-.23.83.83,0,0,1,.62.42,144.26,144.26,0,0,1,14.5,35,2.6,2.6,0,0,1-.68,2.51Z" transform="translate(-500 -293.27)" style="fill:#fef6f0"/><path id="Path-4" data-name="Path" d="M838,547.27a195.81,195.81,0,0,1-12.2,25.94l-6.72,9.4-4.62,6.16A175.38,175.38,0,0,1,790,611.53l-6.24,4.7A194.62,194.62,0,0,1,754.32,631l-8.64,2.49q-73.62,17.91-132.56-32.78a3.28,3.28,0,0,1-.15-4.84l23.64-23.19a1.09,1.09,0,0,1,1.5,0q27.58,25.54,62.9,28,35.94,2.54,64-17.51,7-5,30.15-27.83,24.67-24.36,49-48.71c1.15-1.17,1.67-.93,1.56.7A169,169,0,0,1,838,547.27Z" transform="translate(-500 -293.27)" style="fill:#f39655"/><circle id="Oval" cx="208.2" cy="208.82" r="20.54" style="fill:#faae7b"/></g></g></svg>